# xmcd
#
# Track frame offsets: 
#        150
#        25322
#        45037
#        59637
#        80075
#        99765
#        124780
#        147465
#        169732
#        187030
#
# Disc length: 2701 seconds
#
# Revision: 0
# Processed by: cddbd v1.5.2PL0 Copyright (c) Steve Scherf et al.
# Submitted via: ExactAudioCopy v1.0b3
#
DISCID=840a8b0a
DTITLE=Son Tuyen - Nguoi yeu Dau
DYEAR=1993
DGENRE=
TTITLE0=Mai mai yeu anh
TTITLE1=Nguoi yeu dau
TTITLE2=Thoang may bay
TTITLE3=Anh la tat ca
TTITLE4=Dung mong cho
TTITLE5=Khuc thuy du
TTITLE6=Niem dau chon dau
TTITLE7=Tinh uom nang he
TTITLE8=Tinh xanh (Love is blue)
TTITLE9=Dung pha vo an tinh
EXTD=
EXTT0=
EXTT1=
EXTT2=
EXTT3=
EXTT4=
EXTT5=
EXTT6=
EXTT7=
EXTT8=
EXTT9=
PLAYORDER=
